<?xml version="1.0" encoding="iso-8859-1"?>
<svg height="40px" width="40px" version="1.1" id="Capa_1" xmlns="http://www.w3.org/2000/svg" xmlns:xlink="http://www.w3.org/1999/xlink" 
	 viewBox="0 0 57.674 57.674" xml:space="preserve">
<g>
	<g>
		<path style="fill:#ffffff;" d="M55.338,18.182c1.291,0,2.336-1.047,2.336-2.337V7.012c0-1.29-1.045-2.337-2.336-2.337h-8.834
			c-1.291,0-2.338,1.047-2.338,2.337v2.08H13.508V7.013c0-1.29-1.046-2.337-2.337-2.337H2.337C1.046,4.676,0,5.723,0,7.013v8.833
			c0,1.29,1.046,2.337,2.337,2.337h2.08v21.31H2.338c-1.291,0-2.337,1.047-2.337,2.337v8.833c0,1.291,1.046,2.337,2.337,2.337h8.834
			c1.291,0,2.337-1.047,2.337-2.337v-2.08h30.657v2.08c0,1.291,1.046,2.337,2.337,2.337h8.833c1.291,0,2.338-1.047,2.338-2.337
			v-8.833c0-1.291-1.047-2.337-2.338-2.337h-2.078V18.182H55.338z M48.841,9.349H53v4.158h-2.08h-2.079v-2.078
			C48.841,11.429,48.841,9.349,48.841,9.349z M4.674,9.351h4.16v2.078v2.08h-2.08h-2.08V9.351z M8.834,48.326H4.675v-4.159h2.079
			h2.08v2.079V48.326z M53,48.326h-4.16v-2.08v-2.079h2.08H53C53,44.167,53,48.326,53,48.326z M48.583,39.493h-2.08
			c-1.291,0-2.337,1.047-2.337,2.337v2.078H13.509V41.83c0-1.291-1.046-2.337-2.337-2.337h-2.08v-21.31h2.079
			c1.291,0,2.337-1.047,2.337-2.337v-2.08h30.658v2.079c0,1.29,1.047,2.337,2.338,2.337h2.079
			C48.583,18.182,48.583,39.493,48.583,39.493z"/>
	</g>
</g>
</svg>